<svg width="24" height="26" viewBox="0 0 24 26" fill="none" xmlns="http://www.w3.org/2000/svg">
<path d="M23.3739 10.5493L13.6864 1.4091C13.6817 1.40496 13.6773 1.40051 13.6731 1.39577C13.3165 1.07141 12.8517 0.891663 12.3696 0.891663C11.8874 0.891663 11.4226 1.07141 11.066 1.39577L11.0527 1.4091L1.37605 10.5493C1.17867 10.7308 1.02111 10.9513 0.913345 11.1968C0.805581 11.4423 0.749959 11.7076 0.75 11.9757V23.1709C0.75 23.6847 0.954129 24.1775 1.31748 24.5409C1.68083 24.9042 2.17364 25.1084 2.6875 25.1084H8.5C9.01386 25.1084 9.50667 24.9042 9.87002 24.5409C10.2334 24.1775 10.4375 23.6847 10.4375 23.1709V17.3584H14.3125V23.1709C14.3125 23.6847 14.5166 24.1775 14.88 24.5409C15.2433 24.9042 15.7361 25.1084 16.25 25.1084H22.0625C22.5764 25.1084 23.0692 24.9042 23.4325 24.5409C23.7959 24.1775 24 23.6847 24 23.1709V11.9757C24 11.7076 23.9444 11.4423 23.8367 11.1968C23.7289 10.9513 23.5713 10.7308 23.3739 10.5493ZM22.0625 23.1709H16.25V17.3584C16.25 16.8445 16.0459 16.3517 15.6825 15.9883C15.3192 15.625 14.8264 15.4209 14.3125 15.4209H10.4375C9.92364 15.4209 9.43083 15.625 9.06748 15.9883C8.70413 16.3517 8.5 16.8445 8.5 17.3584V23.1709H2.6875V11.9757L2.70082 11.9636L12.375 2.8271L22.0504 11.9612L22.0637 11.9733L22.0625 23.1709Z"/>
</svg>
