<svg width="60" height="60" viewBox="0 0 60 60" fill="none" xmlns="http://www.w3.org/2000/svg">
<path d="M29.9998 3V11" stroke="#333333" stroke-width="2" stroke-linecap="round"/>
<path opacity="0.6" d="M29.9998 49V57" stroke="#333333" stroke-width="2" stroke-linecap="round"/>
<path opacity="0.9" d="M56.9998 29L48.9998 29" stroke="#333333" stroke-width="2" stroke-linecap="round"/>
<path opacity="0.3" d="M11.9998 29L2.99976 29" stroke="#333333" stroke-width="2" stroke-linecap="round"/>
<path d="M48.9368 10.3636L43.1513 16.1491" stroke="#333333" stroke-width="2" stroke-linecap="round"/>
<path d="M40.4949 5.04541L37.6965 12.7338" stroke="#333333" stroke-width="2" stroke-linecap="round"/>
<path opacity="0.7" d="M40.4949 55.6885L37.6965 48.0001" stroke="#333333" stroke-width="2" stroke-linecap="round"/>
<path opacity="0.1" d="M20.5149 5.04541L23.3132 12.7338" stroke="#333333" stroke-width="2" stroke-linecap="round"/>
<path opacity="0.6" d="M20.5149 55.6885L23.3132 48.0001" stroke="#333333" stroke-width="2" stroke-linecap="round"/>
<path opacity="0.1" d="M12.0603 10.3636L17.8457 16.1491" stroke="#333333" stroke-width="2" stroke-linecap="round"/>
<path opacity="0.2" d="M5.71411 18.0543L12.7998 22.1452" stroke="#333333" stroke-width="2" stroke-linecap="round"/>
<path opacity="0.4" d="M5.51489 40.6364L12.6006 36.5454" stroke="#333333" stroke-width="2" stroke-linecap="round"/>
<path opacity="0.9" d="M54.6003 18.0543L47.5147 22.1452" stroke="#333333" stroke-width="2" stroke-linecap="round"/>
<path opacity="0.8" d="M55.146 40.8409L48.0603 36.75" stroke="#333333" stroke-width="2" stroke-linecap="round"/>
<path opacity="0.8" d="M49.7549 49.0808L43.9695 43.2954" stroke="#333333" stroke-width="2" stroke-linecap="round"/>
<path opacity="0.5" d="M11.2422 49.0808L17.0276 43.2954" stroke="#333333" stroke-width="2" stroke-linecap="round"/>
</svg>
