<svg width="554" height="428" viewBox="0 0 554 428" fill="none" xmlns="http://www.w3.org/2000/svg">
<path d="M127.61 371.27C127.61 374.044 127.205 376.081 126.396 377.381C125.594 378.675 124.352 379.322 122.671 379.322C120.97 379.322 119.721 378.661 118.926 377.34C118.13 376.019 117.732 374.002 117.732 371.291C117.732 368.503 118.134 366.466 118.936 365.18C119.745 363.886 120.99 363.239 122.671 363.239C124.373 363.239 125.621 363.907 126.417 365.242C127.212 366.577 127.61 368.586 127.61 371.27ZM124.954 375.981C125.154 375.469 125.296 374.822 125.379 374.04C125.462 373.259 125.504 372.335 125.504 371.27C125.504 370.212 125.462 369.292 125.379 368.51C125.296 367.729 125.151 367.078 124.943 366.56C124.736 366.034 124.449 365.636 124.082 365.366C123.723 365.09 123.252 364.951 122.671 364.951C122.097 364.951 121.623 365.09 121.25 365.366C120.883 365.636 120.593 366.041 120.378 366.58C120.171 367.106 120.029 367.77 119.953 368.572C119.877 369.375 119.839 370.281 119.839 371.291C119.839 372.37 119.87 373.273 119.932 373.999C120.001 374.725 120.146 375.375 120.368 375.95C120.568 376.482 120.852 376.894 121.219 377.184C121.592 377.468 122.076 377.61 122.671 377.61C123.245 377.61 123.716 377.475 124.082 377.205C124.456 376.928 124.746 376.52 124.954 375.981Z" fill="#2E7F98"/>
<path d="M427.275 379H419.742V377.423H422.544V367.068H419.742V365.657C420.8 365.657 421.579 365.508 422.077 365.211C422.582 364.906 422.865 364.336 422.927 363.499H424.536V377.423H427.275V379ZM439.902 373.989C439.902 374.784 439.771 375.517 439.508 376.188C439.245 376.859 438.892 377.419 438.449 377.869C437.986 378.346 437.467 378.709 436.893 378.958C436.319 379.201 435.686 379.322 434.994 379.322C434.296 379.322 433.659 379.204 433.085 378.969C432.518 378.734 432.016 378.384 431.581 377.921C431.048 377.361 430.63 376.614 430.325 375.68C430.028 374.739 429.879 373.584 429.879 372.214C429.879 370.872 430.017 369.662 430.294 368.583C430.571 367.497 430.996 366.553 431.57 365.75C432.131 364.969 432.853 364.36 433.739 363.924C434.624 363.481 435.648 363.26 436.81 363.26C437.156 363.26 437.478 363.277 437.775 363.312C438.072 363.347 438.335 363.402 438.564 363.478V365.46H438.47C438.283 365.356 438.014 365.263 437.661 365.18C437.308 365.09 436.931 365.045 436.53 365.045C435.243 365.045 434.202 365.481 433.407 366.352C432.618 367.217 432.151 368.503 432.006 370.212C432.497 369.866 433.002 369.6 433.521 369.413C434.04 369.226 434.607 369.133 435.223 369.133C435.824 369.133 436.35 369.195 436.8 369.319C437.256 369.437 437.73 369.679 438.221 370.046C438.788 370.475 439.21 371.018 439.487 371.675C439.764 372.332 439.902 373.103 439.902 373.989ZM437.796 374.072C437.796 373.435 437.713 372.903 437.547 372.474C437.381 372.045 437.111 371.678 436.737 371.374C436.468 371.153 436.16 371.007 435.814 370.938C435.475 370.869 435.126 370.834 434.766 370.834C434.282 370.834 433.811 370.907 433.355 371.052C432.898 371.197 432.449 371.408 432.006 371.685C431.992 371.837 431.982 371.986 431.975 372.131C431.968 372.27 431.965 372.446 431.965 372.66C431.965 373.733 432.068 374.597 432.276 375.254C432.49 375.911 432.753 376.41 433.064 376.748C433.362 377.074 433.666 377.302 433.977 377.433C434.296 377.565 434.638 377.63 435.005 377.63C435.835 377.63 436.506 377.333 437.018 376.738C437.536 376.143 437.796 375.254 437.796 374.072ZM451.336 371.27C451.336 374.044 450.931 376.081 450.122 377.381C449.32 378.675 448.078 379.322 446.397 379.322C444.696 379.322 443.447 378.661 442.652 377.34C441.856 376.019 441.458 374.002 441.458 371.291C441.458 368.503 441.86 366.466 442.662 365.18C443.471 363.886 444.716 363.239 446.397 363.239C448.099 363.239 449.347 363.907 450.143 365.242C450.938 366.577 451.336 368.586 451.336 371.27ZM448.68 375.981C448.88 375.469 449.022 374.822 449.105 374.04C449.188 373.259 449.23 372.335 449.23 371.27C449.23 370.212 449.188 369.292 449.105 368.51C449.022 367.729 448.877 367.078 448.669 366.56C448.462 366.034 448.175 365.636 447.808 365.366C447.449 365.09 446.978 364.951 446.397 364.951C445.823 364.951 445.349 365.09 444.976 365.366C444.609 365.636 444.319 366.041 444.104 366.58C443.897 367.106 443.755 367.77 443.679 368.572C443.603 369.375 443.565 370.281 443.565 371.291C443.565 372.37 443.596 373.273 443.658 373.999C443.727 374.725 443.872 375.375 444.094 375.95C444.294 376.482 444.578 376.894 444.945 377.184C445.318 377.468 445.802 377.61 446.397 377.61C446.971 377.61 447.442 377.475 447.808 377.205C448.182 376.928 448.472 376.52 448.68 375.981Z" fill="#2E7F98"/>
<path d="M121.871 188.688H120.034V194H118.042V188.688H111.215V186.509L118.125 178.551H120.034V187.028H121.871V188.688ZM118.042 187.028V180.989L112.834 187.028H118.042ZM133.139 186.27C133.139 189.044 132.734 191.081 131.925 192.381C131.122 193.675 129.881 194.322 128.2 194.322C126.498 194.322 125.25 193.661 124.454 192.34C123.659 191.019 123.261 189.002 123.261 186.291C123.261 183.503 123.662 181.466 124.465 180.18C125.274 178.886 126.519 178.239 128.2 178.239C129.902 178.239 131.15 178.907 131.946 180.242C132.741 181.577 133.139 183.586 133.139 186.27ZM130.483 190.981C130.683 190.469 130.825 189.822 130.908 189.04C130.991 188.259 131.033 187.335 131.033 186.27C131.033 185.212 130.991 184.292 130.908 183.51C130.825 182.729 130.68 182.078 130.472 181.56C130.265 181.034 129.978 180.636 129.611 180.366C129.251 180.09 128.781 179.951 128.2 179.951C127.626 179.951 127.152 180.09 126.779 180.366C126.412 180.636 126.121 181.041 125.907 181.58C125.699 182.106 125.558 182.77 125.482 183.572C125.405 184.375 125.367 185.281 125.367 186.291C125.367 187.37 125.399 188.273 125.461 188.999C125.53 189.725 125.675 190.375 125.897 190.95C126.097 191.482 126.381 191.894 126.747 192.184C127.121 192.468 127.605 192.61 128.2 192.61C128.774 192.61 129.244 192.475 129.611 192.205C129.985 191.928 130.275 191.52 130.483 190.981Z" fill="#2E7F98"/>
<path d="M190.006 121.989C190.006 122.784 189.875 123.517 189.612 124.188C189.349 124.859 188.996 125.419 188.554 125.869C188.09 126.346 187.571 126.709 186.997 126.958C186.423 127.201 185.79 127.322 185.098 127.322C184.4 127.322 183.763 127.204 183.189 126.969C182.622 126.734 182.121 126.384 181.685 125.921C181.152 125.361 180.734 124.614 180.429 123.68C180.132 122.739 179.983 121.584 179.983 120.214C179.983 118.872 180.122 117.662 180.398 116.583C180.675 115.497 181.1 114.553 181.674 113.75C182.235 112.969 182.958 112.36 183.843 111.924C184.728 111.481 185.752 111.26 186.914 111.26C187.26 111.26 187.582 111.277 187.879 111.312C188.177 111.347 188.439 111.402 188.668 111.478V113.46H188.574C188.388 113.356 188.118 113.263 187.765 113.18C187.412 113.09 187.035 113.045 186.634 113.045C185.347 113.045 184.306 113.481 183.511 114.352C182.722 115.217 182.256 116.503 182.11 118.212C182.601 117.866 183.106 117.6 183.625 117.413C184.144 117.226 184.711 117.133 185.327 117.133C185.928 117.133 186.454 117.195 186.904 117.32C187.36 117.437 187.834 117.679 188.325 118.046C188.892 118.475 189.314 119.018 189.591 119.675C189.868 120.332 190.006 121.103 190.006 121.989ZM187.9 122.072C187.9 121.435 187.817 120.903 187.651 120.474C187.485 120.045 187.215 119.678 186.842 119.374C186.572 119.153 186.264 119.007 185.918 118.938C185.579 118.869 185.23 118.834 184.87 118.834C184.386 118.834 183.916 118.907 183.459 119.052C183.003 119.198 182.553 119.408 182.11 119.685C182.096 119.837 182.086 119.986 182.079 120.131C182.072 120.27 182.069 120.446 182.069 120.66C182.069 121.733 182.173 122.597 182.38 123.254C182.594 123.912 182.857 124.41 183.169 124.748C183.466 125.074 183.77 125.302 184.082 125.433C184.4 125.565 184.742 125.63 185.109 125.63C185.939 125.63 186.61 125.333 187.122 124.738C187.64 124.143 187.9 123.254 187.9 122.072ZM201.44 119.27C201.44 122.044 201.035 124.081 200.226 125.381C199.424 126.675 198.182 127.322 196.501 127.322C194.8 127.322 193.551 126.661 192.756 125.34C191.96 124.019 191.562 122.002 191.562 119.291C191.562 116.503 191.964 114.466 192.766 113.18C193.575 111.886 194.82 111.239 196.501 111.239C198.203 111.239 199.451 111.907 200.247 113.242C201.042 114.577 201.44 116.586 201.44 119.27ZM198.784 123.981C198.985 123.469 199.126 122.822 199.209 122.04C199.292 121.259 199.334 120.335 199.334 119.27C199.334 118.212 199.292 117.292 199.209 116.51C199.126 115.729 198.981 115.078 198.774 114.56C198.566 114.034 198.279 113.636 197.912 113.366C197.553 113.09 197.082 112.951 196.501 112.951C195.927 112.951 195.453 113.09 195.08 113.366C194.713 113.636 194.423 114.041 194.208 114.58C194.001 115.106 193.859 115.77 193.783 116.572C193.707 117.375 193.669 118.281 193.669 119.291C193.669 120.37 193.7 121.273 193.762 121.999C193.831 122.725 193.977 123.375 194.198 123.95C194.398 124.482 194.682 124.894 195.049 125.184C195.422 125.468 195.906 125.61 196.501 125.61C197.075 125.61 197.546 125.475 197.912 125.205C198.286 124.928 198.576 124.52 198.784 123.981Z" fill="#2E7F98"/>
<path d="M278.415 88.077C278.415 87.3853 278.183 86.8078 277.719 86.3443C277.256 85.8809 276.613 85.6491 275.79 85.6491C275.036 85.6491 274.417 85.8567 273.932 86.2717C273.455 86.6867 273.216 87.247 273.216 87.9525C273.216 88.4644 273.337 88.8967 273.58 89.2495C273.829 89.6023 274.199 89.9204 274.69 90.204C274.904 90.3216 275.229 90.4842 275.665 90.6917C276.108 90.8992 276.509 91.0618 276.869 91.1794C277.47 90.7159 277.879 90.2421 278.093 89.7579C278.307 89.2668 278.415 88.7065 278.415 88.077ZM278.705 95.8173C278.705 95.1809 278.581 94.676 278.332 94.3024C278.083 93.9289 277.602 93.5485 276.889 93.1611C276.654 93.0297 276.34 92.8879 275.945 92.7357C275.558 92.5835 275.119 92.4037 274.628 92.1962C274.053 92.5766 273.614 93.047 273.31 93.6073C273.005 94.1606 272.853 94.7935 272.853 95.506C272.853 96.4398 273.133 97.2111 273.694 97.8198C274.261 98.4285 274.97 98.7328 275.821 98.7328C276.692 98.7328 277.391 98.4734 277.917 97.9547C278.442 97.429 278.705 96.7165 278.705 95.8173ZM275.8 100.279C275.032 100.279 274.334 100.165 273.704 99.9364C273.075 99.7081 272.539 99.3796 272.096 98.9507C271.66 98.5357 271.328 98.0446 271.1 97.4774C270.878 96.9033 270.768 96.298 270.768 95.6616C270.768 94.8247 270.989 94.0569 271.432 93.3582C271.881 92.6527 272.532 92.0924 273.382 91.6774V91.6151C272.622 91.1724 272.058 90.6882 271.691 90.1625C271.325 89.6368 271.141 88.9797 271.141 88.1912C271.141 87.0291 271.581 86.0607 272.459 85.286C273.337 84.5113 274.451 84.1239 275.8 84.1239C277.204 84.1239 278.328 84.494 279.172 85.2341C280.023 85.9673 280.448 86.9081 280.448 88.0563C280.448 88.748 280.244 89.4328 279.836 90.1107C279.435 90.7885 278.854 91.3177 278.093 91.6981V91.7604C278.992 92.1823 279.674 92.6942 280.137 93.296C280.6 93.8978 280.832 94.6725 280.832 95.6201C280.832 96.9413 280.351 98.048 279.39 98.9403C278.435 99.8326 277.239 100.279 275.8 100.279ZM292.339 92.1962C292.339 94.9699 291.934 97.007 291.125 98.3074C290.322 99.6009 289.081 100.248 287.4 100.248C285.698 100.248 284.45 99.5871 283.654 98.2659C282.859 96.9448 282.461 94.9284 282.461 92.2169C282.461 89.4293 282.862 87.3922 283.665 86.1057C284.474 84.8122 285.719 84.1654 287.4 84.1654C289.102 84.1654 290.35 84.8329 291.146 86.1679C291.941 87.5029 292.339 89.5123 292.339 92.1962ZM289.683 96.9067C289.883 96.3948 290.025 95.7481 290.108 94.9665C290.191 94.1848 290.233 93.2614 290.233 92.1962C290.233 91.1379 290.191 90.2179 290.108 89.4363C290.025 88.6546 289.88 88.0044 289.672 87.4856C289.465 86.9599 289.178 86.5622 288.811 86.2924C288.451 86.0157 287.981 85.8774 287.4 85.8774C286.826 85.8774 286.352 86.0157 285.978 86.2924C285.612 86.5622 285.321 86.9668 285.107 87.5064C284.899 88.0321 284.758 88.6961 284.682 89.4985C284.605 90.3009 284.567 91.207 284.567 92.2169C284.567 93.296 284.599 94.1987 284.661 94.925C284.73 95.6513 284.875 96.3015 285.097 96.8756C285.297 97.4082 285.581 97.8198 285.947 98.1103C286.321 98.3939 286.805 98.5357 287.4 98.5357C287.974 98.5357 288.444 98.4008 288.811 98.131C289.185 97.8544 289.475 97.4462 289.683 96.9067Z" fill="#2E7F98"/>
<path d="M363.527 127H355.994V125.423H358.796V115.068H355.994V113.657C357.053 113.657 357.831 113.508 358.329 113.211C358.834 112.906 359.117 112.336 359.18 111.499H360.788V125.423H363.527V127ZM375.988 119.27C375.988 122.044 375.583 124.081 374.774 125.381C373.972 126.675 372.73 127.322 371.049 127.322C369.348 127.322 368.099 126.661 367.304 125.34C366.508 124.019 366.11 122.002 366.11 119.291C366.11 116.503 366.512 114.466 367.314 113.18C368.123 111.886 369.368 111.239 371.049 111.239C372.751 111.239 373.999 111.907 374.795 113.242C375.59 114.577 375.988 116.586 375.988 119.27ZM373.332 123.981C373.532 123.469 373.674 122.822 373.757 122.04C373.84 121.259 373.882 120.335 373.882 119.27C373.882 118.212 373.84 117.292 373.757 116.51C373.674 115.729 373.529 115.078 373.322 114.56C373.114 114.034 372.827 113.636 372.46 113.366C372.101 113.09 371.63 112.951 371.049 112.951C370.475 112.951 370.001 113.09 369.628 113.366C369.261 113.636 368.971 114.041 368.756 114.58C368.549 115.106 368.407 115.77 368.331 116.572C368.255 117.375 368.217 118.281 368.217 119.291C368.217 120.37 368.248 121.273 368.31 121.999C368.379 122.725 368.525 123.375 368.746 123.95C368.946 124.482 369.23 124.894 369.597 125.184C369.97 125.468 370.454 125.61 371.049 125.61C371.623 125.61 372.094 125.475 372.46 125.205C372.834 124.928 373.124 124.52 373.332 123.981ZM387.588 119.27C387.588 122.044 387.183 124.081 386.374 125.381C385.572 126.675 384.33 127.322 382.649 127.322C380.948 127.322 379.699 126.661 378.904 125.34C378.108 124.019 377.71 122.002 377.71 119.291C377.71 116.503 378.112 114.466 378.914 113.18C379.723 111.886 380.968 111.239 382.649 111.239C384.351 111.239 385.599 111.907 386.395 113.242C387.19 114.577 387.588 116.586 387.588 119.27ZM384.932 123.981C385.132 123.469 385.274 122.822 385.357 122.04C385.44 121.259 385.482 120.335 385.482 119.27C385.482 118.212 385.44 117.292 385.357 116.51C385.274 115.729 385.129 115.078 384.921 114.56C384.714 114.034 384.427 113.636 384.06 113.366C383.701 113.09 383.23 112.951 382.649 112.951C382.075 112.951 381.601 113.09 381.228 113.366C380.861 113.636 380.571 114.041 380.356 114.58C380.149 115.106 380.007 115.77 379.931 116.572C379.855 117.375 379.817 118.281 379.817 119.291C379.817 120.37 379.848 121.273 379.91 121.999C379.979 122.725 380.124 123.375 380.346 123.95C380.546 124.482 380.83 124.894 381.197 125.184C381.57 125.468 382.054 125.61 382.649 125.61C383.223 125.61 383.694 125.475 384.06 125.205C384.434 124.928 384.724 124.52 384.932 123.981Z" fill="#2E7F98"/>
<path d="M427.275 194H419.742V192.423H422.544V182.068H419.742V180.657C420.8 180.657 421.579 180.508 422.077 180.211C422.582 179.906 422.865 179.336 422.927 178.499H424.536V192.423H427.275V194ZM439.663 194H430.128V191.831C430.813 191.181 431.46 190.559 432.068 189.964C432.677 189.369 433.272 188.75 433.853 188.107C435.029 186.813 435.831 185.779 436.26 185.004C436.689 184.223 436.903 183.417 436.903 182.587C436.903 182.158 436.834 181.781 436.696 181.456C436.564 181.131 436.381 180.861 436.146 180.647C435.904 180.439 435.624 180.283 435.306 180.18C434.987 180.076 434.638 180.024 434.258 180.024C433.891 180.024 433.518 180.072 433.137 180.169C432.764 180.259 432.404 180.373 432.058 180.512C431.767 180.629 431.487 180.771 431.218 180.937C430.948 181.103 430.73 181.245 430.564 181.362H430.45V179.163C430.879 178.948 431.474 178.741 432.234 178.54C433.002 178.333 433.728 178.229 434.413 178.229C435.852 178.229 436.98 178.613 437.796 179.381C438.612 180.142 439.02 181.176 439.02 182.483C439.02 183.085 438.947 183.642 438.802 184.154C438.664 184.665 438.47 185.139 438.221 185.575C437.965 186.025 437.657 186.471 437.298 186.913C436.938 187.356 436.558 187.792 436.156 188.221C435.506 188.926 434.78 189.66 433.977 190.42C433.182 191.181 432.546 191.783 432.068 192.226H439.663V194ZM451.336 186.27C451.336 189.044 450.931 191.081 450.122 192.381C449.32 193.675 448.078 194.322 446.397 194.322C444.696 194.322 443.447 193.661 442.652 192.34C441.856 191.019 441.458 189.002 441.458 186.291C441.458 183.503 441.86 181.466 442.662 180.18C443.471 178.886 444.716 178.239 446.397 178.239C448.099 178.239 449.347 178.907 450.143 180.242C450.938 181.577 451.336 183.586 451.336 186.27ZM448.68 190.981C448.88 190.469 449.022 189.822 449.105 189.04C449.188 188.259 449.23 187.335 449.23 186.27C449.23 185.212 449.188 184.292 449.105 183.51C449.022 182.729 448.877 182.078 448.669 181.56C448.462 181.034 448.175 180.636 447.808 180.366C447.449 180.09 446.978 179.951 446.397 179.951C445.823 179.951 445.349 180.09 444.976 180.366C444.609 180.636 444.319 181.041 444.104 181.58C443.897 182.106 443.755 182.77 443.679 183.572C443.603 184.375 443.565 185.281 443.565 186.291C443.565 187.37 443.596 188.273 443.658 188.999C443.727 189.725 443.872 190.375 444.094 190.95C444.294 191.482 444.578 191.894 444.945 192.184C445.318 192.468 445.802 192.61 446.397 192.61C446.971 192.61 447.442 192.475 447.808 192.205C448.182 191.928 448.472 191.52 448.68 190.981Z" fill="#2E7F98"/>
<path d="M100.217 288H90.6816V285.831C91.3664 285.181 92.0131 284.559 92.6218 283.964C93.2306 283.369 93.8254 282.75 94.4065 282.107C95.5824 280.813 96.3847 279.779 96.8136 279.004C97.2425 278.223 97.4569 277.417 97.4569 276.587C97.4569 276.158 97.3877 275.781 97.2494 275.456C97.118 275.131 96.9347 274.861 96.6995 274.647C96.4574 274.439 96.1772 274.283 95.859 274.18C95.5409 274.076 95.1915 274.024 94.8111 274.024C94.4445 274.024 94.071 274.072 93.6905 274.169C93.317 274.259 92.9573 274.373 92.6115 274.512C92.321 274.629 92.0408 274.771 91.771 274.937C91.5013 275.103 91.2834 275.245 91.1174 275.362H91.0032V273.163C91.4321 272.948 92.027 272.741 92.7879 272.54C93.5557 272.333 94.282 272.229 94.9667 272.229C96.4055 272.229 97.533 272.613 98.3492 273.381C99.1654 274.142 99.5735 275.176 99.5735 276.483C99.5735 277.085 99.5009 277.642 99.3556 278.153C99.2173 278.665 99.0236 279.139 98.7746 279.575C98.5187 280.025 98.2109 280.471 97.8512 280.913C97.4915 281.356 97.111 281.792 96.7099 282.221C96.0596 282.926 95.3334 283.659 94.531 284.42C93.7355 285.181 93.0991 285.783 92.6218 286.226H100.217V288ZM111.889 280.27C111.889 283.044 111.485 285.081 110.675 286.381C109.873 287.675 108.631 288.322 106.951 288.322C105.249 288.322 104 287.661 103.205 286.34C102.41 285.019 102.012 283.002 102.012 280.291C102.012 277.503 102.413 275.466 103.215 274.18C104.025 272.886 105.27 272.239 106.951 272.239C108.652 272.239 109.901 272.907 110.696 274.242C111.492 275.577 111.889 277.586 111.889 280.27ZM109.233 284.981C109.434 284.469 109.576 283.822 109.659 283.04C109.742 282.259 109.783 281.335 109.783 280.27C109.783 279.212 109.742 278.292 109.659 277.51C109.576 276.729 109.43 276.078 109.223 275.56C109.015 275.034 108.728 274.636 108.362 274.366C108.002 274.09 107.532 273.951 106.951 273.951C106.376 273.951 105.903 274.09 105.529 274.366C105.163 274.636 104.872 275.041 104.658 275.58C104.45 276.106 104.308 276.77 104.232 277.572C104.156 278.375 104.118 279.281 104.118 280.291C104.118 281.37 104.149 282.273 104.211 282.999C104.281 283.725 104.426 284.375 104.647 284.95C104.848 285.482 105.131 285.894 105.498 286.184C105.872 286.468 106.356 286.61 106.951 286.61C107.525 286.61 107.995 286.475 108.362 286.205C108.735 285.928 109.026 285.52 109.233 284.981Z" fill="#2E7F98"/>
<path d="M451.56 288H444.027V286.423H446.828V276.068H444.027V274.657C445.085 274.657 445.864 274.508 446.362 274.211C446.866 273.906 447.15 273.336 447.212 272.499H448.821V286.423H451.56V288ZM464.353 282.688H462.516V288H460.524V282.688H453.697V280.509L460.607 272.551H462.516V281.028H464.353V282.688ZM460.524 281.028V274.989L455.316 281.028H460.524ZM475.621 280.27C475.621 283.044 475.216 285.081 474.407 286.381C473.605 287.675 472.363 288.322 470.682 288.322C468.98 288.322 467.732 287.661 466.936 286.34C466.141 285.019 465.743 283.002 465.743 280.291C465.743 277.503 466.144 275.466 466.947 274.18C467.756 272.886 469.001 272.239 470.682 272.239C472.384 272.239 473.632 272.907 474.428 274.242C475.223 275.577 475.621 277.586 475.621 280.27ZM472.965 284.981C473.165 284.469 473.307 283.822 473.39 283.04C473.473 282.259 473.515 281.335 473.515 280.27C473.515 279.212 473.473 278.292 473.39 277.51C473.307 276.729 473.162 276.078 472.954 275.56C472.747 275.034 472.46 274.636 472.093 274.366C471.733 274.09 471.263 273.951 470.682 273.951C470.108 273.951 469.634 274.09 469.261 274.366C468.894 274.636 468.603 275.041 468.389 275.58C468.182 276.106 468.04 276.77 467.964 277.572C467.888 278.375 467.849 279.281 467.849 280.291C467.849 281.37 467.881 282.273 467.943 282.999C468.012 283.725 468.157 284.375 468.379 284.95C468.579 285.482 468.863 285.894 469.229 286.184C469.603 286.468 470.087 286.61 470.682 286.61C471.256 286.61 471.727 286.475 472.093 286.205C472.467 285.928 472.757 285.52 472.965 284.981Z" fill="#2E7F98"/>
<mask id="path-10-inside-1_3_139" fill="white">
<path d="M401.774 348.98C403.967 350.136 406.688 349.299 407.775 347.071C417.98 326.161 422.983 303.069 422.326 279.767C421.627 254.967 414.541 230.767 401.753 209.507C388.965 188.247 370.908 170.647 349.328 158.407C327.748 146.168 303.374 139.703 278.565 139.639C253.756 139.575 229.349 145.913 207.706 158.041C186.063 170.168 167.915 187.675 155.017 208.869C142.119 230.062 134.908 254.225 134.08 279.02C133.303 302.319 138.186 325.436 148.283 346.399C149.358 348.632 152.075 349.484 154.274 348.339C156.473 347.195 157.321 344.487 156.249 342.252C146.864 322.661 142.326 301.075 143.052 279.32C143.828 256.068 150.591 233.409 162.686 213.536C174.78 193.662 191.799 177.245 212.094 165.872C232.39 154.499 255.277 148.556 278.542 148.616C301.807 148.676 324.662 154.738 344.899 166.216C365.136 177.693 382.069 194.198 394.06 214.134C406.052 234.071 412.697 256.764 413.353 280.02C413.966 301.778 409.317 323.34 399.83 342.882C398.747 345.112 399.581 347.824 401.774 348.98Z"/>
</mask>
<path d="M401.774 348.98C403.967 350.136 406.688 349.299 407.775 347.071C417.98 326.161 422.983 303.069 422.326 279.767C421.627 254.967 414.541 230.767 401.753 209.507C388.965 188.247 370.908 170.647 349.328 158.407C327.748 146.168 303.374 139.703 278.565 139.639C253.756 139.575 229.349 145.913 207.706 158.041C186.063 170.168 167.915 187.675 155.017 208.869C142.119 230.062 134.908 254.225 134.08 279.02C133.303 302.319 138.186 325.436 148.283 346.399C149.358 348.632 152.075 349.484 154.274 348.339C156.473 347.195 157.321 344.487 156.249 342.252C146.864 322.661 142.326 301.075 143.052 279.32C143.828 256.068 150.591 233.409 162.686 213.536C174.78 193.662 191.799 177.245 212.094 165.872C232.39 154.499 255.277 148.556 278.542 148.616C301.807 148.676 324.662 154.738 344.899 166.216C365.136 177.693 382.069 194.198 394.06 214.134C406.052 234.071 412.697 256.764 413.353 280.02C413.966 301.778 409.317 323.34 399.83 342.882C398.747 345.112 399.581 347.824 401.774 348.98Z" fill="#2FBCD3" stroke="#2FBCD3" stroke-width="3.03562" mask="url(#path-10-inside-1_3_139)"/>
<path d="M80.4438 396.907L102.79 384.005" stroke="#2E7F98" stroke-width="3.03562" stroke-linecap="round"/>
<path d="M45.5342 280.795H71.337" stroke="#2E7F98" stroke-width="3.03562" stroke-linecap="round"/>
<path d="M77.4082 163.923L99.754 176.825" stroke="#2E7F98" stroke-width="3.03562" stroke-linecap="round"/>
<path d="M163.923 75.8904L176.825 98.2362" stroke="#2E7F98" stroke-width="3.03562" stroke-linecap="round"/>
<path d="M282.312 42.4986V68.3014" stroke="#2E7F98" stroke-width="3.03562" stroke-linecap="round"/>
<path d="M399.943 75.8904L387.041 98.2362" stroke="#2E7F98" stroke-width="3.03562" stroke-linecap="round"/>
<path d="M485.277 163.923L462.932 176.825" stroke="#2E7F98" stroke-width="3.03562" stroke-linecap="round"/>
<path d="M517.573 280.795H491.77" stroke="#2E7F98" stroke-width="3.03562" stroke-linecap="round"/>
<path d="M485.277 397.666L462.932 384.764" stroke="#2E7F98" stroke-width="3.03562" stroke-linecap="round"/>
<path d="M81.8173 373.381L90.0709 369.532" stroke="#2E7F98" stroke-width="3.03562" stroke-linecap="round"/>
<path d="M74.0765 353.649L82.6342 350.535" stroke="#2E7F98" stroke-width="3.03562" stroke-linecap="round"/>
<path d="M68.0946 335.436L76.8911 333.079" stroke="#2E7F98" stroke-width="3.03562" stroke-linecap="round"/>
<path d="M63.4552 317.222L72.4237 315.641" stroke="#2E7F98" stroke-width="3.03562" stroke-linecap="round"/>
<path d="M61.973 299.008L71.0452 298.214" stroke="#2E7F98" stroke-width="3.03562" stroke-linecap="round"/>
<path d="M61.973 261.063L71.0452 261.857" stroke="#2E7F98" stroke-width="3.03562" stroke-linecap="round"/>
<path d="M63.7998 241.332L72.7683 242.913" stroke="#2E7F98" stroke-width="3.03562" stroke-linecap="round"/>
<path d="M68.3873 221.6L77.1839 223.957" stroke="#2E7F98" stroke-width="3.03562" stroke-linecap="round"/>
<path d="M76.0097 204.904L84.5673 208.019" stroke="#2E7F98" stroke-width="3.03562" stroke-linecap="round"/>
<path d="M82.1136 185.173L90.3672 189.021" stroke="#2E7F98" stroke-width="3.03562" stroke-linecap="round"/>
<path d="M102.09 154.816L109.55 160.04" stroke="#2E7F98" stroke-width="3.03562" stroke-linecap="round"/>
<path d="M112.56 139.638L119.536 145.492" stroke="#2E7F98" stroke-width="3.03562" stroke-linecap="round"/>
<path d="M126.246 124.46L132.686 130.9" stroke="#2E7F98" stroke-width="3.03562" stroke-linecap="round"/>
<path d="M139.931 112.318L145.785 119.294" stroke="#2E7F98" stroke-width="3.03562" stroke-linecap="round"/>
<path d="M204.904 72.8548L208.019 81.4124" stroke="#2E7F98" stroke-width="3.03562" stroke-linecap="round"/>
<path d="M243.616 63.7479L245.197 72.7164" stroke="#2E7F98" stroke-width="3.03562" stroke-linecap="round"/>
<path d="M262.975 60.7123L263.768 69.7845" stroke="#2E7F98" stroke-width="3.03562" stroke-linecap="round"/>
<path d="M301.32 60.7123L300.526 69.7845" stroke="#2E7F98" stroke-width="3.03562" stroke-linecap="round"/>
<path d="M319.927 63.7479L318.346 72.7164" stroke="#2E7F98" stroke-width="3.03562" stroke-linecap="round"/>
<path d="M338.923 68.3014L336.566 77.0979" stroke="#2E7F98" stroke-width="3.03562" stroke-linecap="round"/>
<path d="M357.903 72.8548L354.788 81.4124" stroke="#2E7F98" stroke-width="3.03562" stroke-linecap="round"/>
<path d="M375.345 81.9616L371.496 90.2153" stroke="#2E7F98" stroke-width="3.03562" stroke-linecap="round"/>
<path d="M406.755 100.175L401.532 107.635" stroke="#2E7F98" stroke-width="3.03562" stroke-linecap="round"/>
<path d="M422.936 112.318L417.082 119.294" stroke="#2E7F98" stroke-width="3.03562" stroke-linecap="round"/>
<path d="M437.204 124.46L430.765 130.9" stroke="#2E7F98" stroke-width="3.03562" stroke-linecap="round"/>
<path d="M448.39 139.638L441.414 145.492" stroke="#2E7F98" stroke-width="3.03562" stroke-linecap="round"/>
<path d="M459.818 154.816L452.358 160.04" stroke="#2E7F98" stroke-width="3.03562" stroke-linecap="round"/>
<path d="M479.627 185.173L471.374 189.021" stroke="#2E7F98" stroke-width="3.03562" stroke-linecap="round"/>
<path d="M487.216 204.904L478.659 208.019" stroke="#2E7F98" stroke-width="3.03562" stroke-linecap="round"/>
<path d="M493.288 221.6L484.491 223.957" stroke="#2E7F98" stroke-width="3.03562" stroke-linecap="round"/>
<path d="M493.288 334.757L484.491 332.4" stroke="#2E7F98" stroke-width="3.03562" stroke-linecap="round"/>
<path d="M487.216 353.649L478.659 350.535" stroke="#2E7F98" stroke-width="3.03562" stroke-linecap="round"/>
<path d="M479.627 373.381L471.374 369.532" stroke="#2E7F98" stroke-width="3.03562" stroke-linecap="round"/>
<path d="M497.841 241.332L488.873 242.913" stroke="#2E7F98" stroke-width="3.03562" stroke-linecap="round"/>
<path d="M497.841 317.285L488.873 315.704" stroke="#2E7F98" stroke-width="3.03562" stroke-linecap="round"/>
<path d="M500.877 261.063L491.805 261.857" stroke="#2E7F98" stroke-width="3.03562" stroke-linecap="round"/>
<path d="M500.877 298.284L491.805 297.49" stroke="#2E7F98" stroke-width="3.03562" stroke-linecap="round"/>
<path d="M156.649 100.175L161.873 107.635" stroke="#2E7F98" stroke-width="3.03562" stroke-linecap="round"/>
<path d="M187.378 81.9616L191.227 90.2153" stroke="#2E7F98" stroke-width="3.03562" stroke-linecap="round"/>
<path d="M223.864 68.3014L226.221 77.0979" stroke="#2E7F98" stroke-width="3.03562" stroke-linecap="round"/>
<g opacity="0.2">
<mask id="path-60-inside-2_3_139" fill="white">
<path d="M515.003 415.869C515.693 416.271 516.579 416.038 516.978 415.346C541.177 373.371 553.946 325.773 554 277.305C554.054 228.354 541.135 180.264 516.559 137.929C491.982 95.5952 456.627 60.5297 414.092 36.3033C371.556 12.0768 323.361 -0.44523 274.412 0.0120887C225.464 0.469407 177.51 13.8898 135.435 38.9067C93.36 63.9237 58.6657 99.6436 34.8847 142.43C11.1038 185.216 -0.914252 233.539 0.0542185 282.48C1.01315 330.939 14.6701 378.29 39.649 419.806C40.0608 420.49 40.9511 420.707 41.6333 420.292C42.3155 419.876 42.5312 418.986 42.1195 418.302C17.4063 377.222 3.89468 330.371 2.94586 282.423C1.98751 233.993 13.8801 186.174 37.4127 143.835C60.9453 101.495 95.2774 66.1484 136.913 41.3927C178.549 16.637 226.002 3.35672 274.439 2.90417C322.877 2.45163 370.569 14.8429 412.66 38.8164C454.751 62.7899 489.738 97.4893 514.057 139.381C538.377 181.274 551.161 228.862 551.108 277.302C551.055 325.259 538.421 372.354 514.48 413.889C514.081 414.581 514.313 415.466 515.003 415.869Z"/>
</mask>
<path d="M515.003 415.869C515.693 416.271 516.579 416.038 516.978 415.346C541.177 373.371 553.946 325.773 554 277.305C554.054 228.354 541.135 180.264 516.559 137.929C491.982 95.5952 456.627 60.5297 414.092 36.3033C371.556 12.0768 323.361 -0.44523 274.412 0.0120887C225.464 0.469407 177.51 13.8898 135.435 38.9067C93.36 63.9237 58.6657 99.6436 34.8847 142.43C11.1038 185.216 -0.914252 233.539 0.0542185 282.48C1.01315 330.939 14.6701 378.29 39.649 419.806C40.0608 420.49 40.9511 420.707 41.6333 420.292C42.3155 419.876 42.5312 418.986 42.1195 418.302C17.4063 377.222 3.89468 330.371 2.94586 282.423C1.98751 233.993 13.8801 186.174 37.4127 143.835C60.9453 101.495 95.2774 66.1484 136.913 41.3927C178.549 16.637 226.002 3.35672 274.439 2.90417C322.877 2.45163 370.569 14.8429 412.66 38.8164C454.751 62.7899 489.738 97.4893 514.057 139.381C538.377 181.274 551.161 228.862 551.108 277.302C551.055 325.259 538.421 372.354 514.48 413.889C514.081 414.581 514.313 415.466 515.003 415.869Z" stroke="#2E7F98" stroke-width="3.03562" mask="url(#path-60-inside-2_3_139)"/>
</g>
<circle cx="278.5" cy="276.5" r="14.5" stroke="#2E7F98" stroke-width="8"/>
<path d="M263 281L186 330" stroke="#2E7F98" stroke-width="8" stroke-linecap="round"/>
</svg>
