<svg width="554" height="428" viewBox="0 0 554 428" fill="none" xmlns="http://www.w3.org/2000/svg">
<path d="M80.4438 396.907L102.79 384.005" stroke="#2E7F98" stroke-width="3.03562" stroke-linecap="round"/>
<path d="M45.5342 280.795H71.337" stroke="#2E7F98" stroke-width="3.03562" stroke-linecap="round"/>
<path d="M77.4082 163.923L99.754 176.825" stroke="#2E7F98" stroke-width="3.03562" stroke-linecap="round"/>
<path d="M163.923 75.8904L176.825 98.2362" stroke="#2E7F98" stroke-width="3.03562" stroke-linecap="round"/>
<path d="M282.312 42.4986V68.3014" stroke="#2E7F98" stroke-width="3.03562" stroke-linecap="round"/>
<path d="M399.943 75.8904L387.041 98.2362" stroke="#2E7F98" stroke-width="3.03562" stroke-linecap="round"/>
<path d="M485.277 163.923L462.932 176.825" stroke="#2E7F98" stroke-width="3.03562" stroke-linecap="round"/>
<path d="M517.573 280.795H491.77" stroke="#2E7F98" stroke-width="3.03562" stroke-linecap="round"/>
<path d="M485.277 397.666L462.932 384.764" stroke="#2E7F98" stroke-width="3.03562" stroke-linecap="round"/>
<path d="M81.8173 373.381L90.0709 369.532" stroke="#2E7F98" stroke-width="3.03562" stroke-linecap="round"/>
<path d="M74.0765 353.649L82.6342 350.535" stroke="#2E7F98" stroke-width="3.03562" stroke-linecap="round"/>
<path d="M68.0946 335.436L76.8911 333.079" stroke="#2E7F98" stroke-width="3.03562" stroke-linecap="round"/>
<path d="M63.4552 317.222L72.4237 315.641" stroke="#2E7F98" stroke-width="3.03562" stroke-linecap="round"/>
<path d="M61.973 299.008L71.0452 298.214" stroke="#2E7F98" stroke-width="3.03562" stroke-linecap="round"/>
<path d="M61.973 261.063L71.0452 261.857" stroke="#2E7F98" stroke-width="3.03562" stroke-linecap="round"/>
<path d="M63.7998 241.332L72.7683 242.913" stroke="#2E7F98" stroke-width="3.03562" stroke-linecap="round"/>
<path d="M68.3873 221.6L77.1839 223.957" stroke="#2E7F98" stroke-width="3.03562" stroke-linecap="round"/>
<path d="M76.0097 204.904L84.5673 208.019" stroke="#2E7F98" stroke-width="3.03562" stroke-linecap="round"/>
<path d="M82.1136 185.173L90.3672 189.021" stroke="#2E7F98" stroke-width="3.03562" stroke-linecap="round"/>
<path d="M102.09 154.816L109.55 160.04" stroke="#2E7F98" stroke-width="3.03562" stroke-linecap="round"/>
<path d="M112.56 139.638L119.536 145.492" stroke="#2E7F98" stroke-width="3.03562" stroke-linecap="round"/>
<path d="M126.246 124.46L132.686 130.9" stroke="#2E7F98" stroke-width="3.03562" stroke-linecap="round"/>
<path d="M139.931 112.318L145.785 119.294" stroke="#2E7F98" stroke-width="3.03562" stroke-linecap="round"/>
<path d="M204.904 72.8548L208.019 81.4124" stroke="#2E7F98" stroke-width="3.03562" stroke-linecap="round"/>
<path d="M243.616 63.7479L245.197 72.7164" stroke="#2E7F98" stroke-width="3.03562" stroke-linecap="round"/>
<path d="M262.975 60.7123L263.768 69.7845" stroke="#2E7F98" stroke-width="3.03562" stroke-linecap="round"/>
<path d="M301.32 60.7123L300.526 69.7845" stroke="#2E7F98" stroke-width="3.03562" stroke-linecap="round"/>
<path d="M319.927 63.7479L318.346 72.7164" stroke="#2E7F98" stroke-width="3.03562" stroke-linecap="round"/>
<path d="M338.923 68.3014L336.566 77.0979" stroke="#2E7F98" stroke-width="3.03562" stroke-linecap="round"/>
<path d="M357.903 72.8548L354.788 81.4124" stroke="#2E7F98" stroke-width="3.03562" stroke-linecap="round"/>
<path d="M375.345 81.9616L371.496 90.2153" stroke="#2E7F98" stroke-width="3.03562" stroke-linecap="round"/>
<path d="M406.755 100.175L401.532 107.635" stroke="#2E7F98" stroke-width="3.03562" stroke-linecap="round"/>
<path d="M422.936 112.318L417.082 119.294" stroke="#2E7F98" stroke-width="3.03562" stroke-linecap="round"/>
<path d="M437.204 124.46L430.765 130.9" stroke="#2E7F98" stroke-width="3.03562" stroke-linecap="round"/>
<path d="M448.39 139.638L441.414 145.492" stroke="#2E7F98" stroke-width="3.03562" stroke-linecap="round"/>
<path d="M459.818 154.816L452.358 160.04" stroke="#2E7F98" stroke-width="3.03562" stroke-linecap="round"/>
<path d="M479.627 185.173L471.374 189.021" stroke="#2E7F98" stroke-width="3.03562" stroke-linecap="round"/>
<path d="M487.216 204.904L478.659 208.019" stroke="#2E7F98" stroke-width="3.03562" stroke-linecap="round"/>
<path d="M493.288 221.6L484.491 223.957" stroke="#2E7F98" stroke-width="3.03562" stroke-linecap="round"/>
<path d="M493.288 334.757L484.491 332.4" stroke="#2E7F98" stroke-width="3.03562" stroke-linecap="round"/>
<path d="M487.216 353.649L478.659 350.535" stroke="#2E7F98" stroke-width="3.03562" stroke-linecap="round"/>
<path d="M479.627 373.381L471.374 369.532" stroke="#2E7F98" stroke-width="3.03562" stroke-linecap="round"/>
<path d="M497.841 241.332L488.873 242.913" stroke="#2E7F98" stroke-width="3.03562" stroke-linecap="round"/>
<path d="M497.841 317.285L488.873 315.704" stroke="#2E7F98" stroke-width="3.03562" stroke-linecap="round"/>
<path d="M500.877 261.063L491.805 261.857" stroke="#2E7F98" stroke-width="3.03562" stroke-linecap="round"/>
<path d="M500.877 298.284L491.805 297.49" stroke="#2E7F98" stroke-width="3.03562" stroke-linecap="round"/>
<path d="M156.649 100.175L161.873 107.635" stroke="#2E7F98" stroke-width="3.03562" stroke-linecap="round"/>
<path d="M187.378 81.9616L191.227 90.2153" stroke="#2E7F98" stroke-width="3.03562" stroke-linecap="round"/>
<path d="M223.864 68.3014L226.221 77.0979" stroke="#2E7F98" stroke-width="3.03562" stroke-linecap="round"/>
</svg>
